<svg width="26" height="15" viewBox="0 0 26 15" fill="none" xmlns="http://www.w3.org/2000/svg">
<path d="M25.7656 1.37695C25.7633 1.72703 25.63 2.06281 25.3945 2.31641L25.3955 2.31641L14.6602 13.7012C14.4278 13.9515 14.1478 14.1509 13.8379 14.2871C13.5279 14.4233 13.1937 14.4941 12.8564 14.4941C12.5191 14.4941 12.1851 14.4233 11.875 14.2871C11.5649 14.1509 11.2852 13.9516 11.0527 13.7012L11.0518 13.7012L0.395508 2.39844C-0.097846 1.8751 -0.0980111 1.02558 0.395508 0.500975C0.510476 0.376968 0.649367 0.278383 0.802734 0.210936C0.956062 0.14353 1.12126 0.109374 1.28809 0.109374C1.45493 0.109377 1.62011 0.143521 1.77344 0.210936C1.9268 0.278383 2.0657 0.376968 2.18066 0.500976L2.18066 0.501952L11.9248 10.8379C12.0446 10.967 12.1887 11.0703 12.3486 11.1406C12.5086 11.2109 12.6813 11.2471 12.8555 11.2471C13.0296 11.2471 13.2023 11.2109 13.3623 11.1406C13.4822 11.0879 13.5929 11.0163 13.6914 10.9297L13.7861 10.8379L23.6084 0.417969C23.7246 0.292928 23.8644 0.193403 24.0195 0.125976C24.1748 0.0585134 24.3421 0.0240712 24.5107 0.0253906C24.6793 0.0267223 24.8458 0.0639464 25 0.133789C25.1542 0.203703 25.2928 0.3056 25.4072 0.432617C25.6392 0.689449 25.7679 1.02695 25.7656 1.37695Z" fill="#796743" stroke="#796743" stroke-width="0.0515607"/>
</svg>
