<svg width="8" height="15" viewBox="0 0 8 15" fill="none" xmlns="http://www.w3.org/2000/svg">
<path fill-rule="evenodd" clip-rule="evenodd" d="M7.73344 0.219364C7.4389 -0.073121 6.96255 -0.073121 6.66874 0.219364L0.441211 6.41705C0.30181 6.55367 0.19081 6.71809 0.114962 6.90033C0.0391128 7.08257 -6.75008e-07 7.27881 -6.57671e-07 7.47712C-6.40334e-07 7.67544 0.0391129 7.87168 0.114962 8.05392C0.190811 8.23615 0.301811 8.40058 0.441211 8.5372L6.71383 14.7806C6.85619 14.9202 7.04471 14.9986 7.24111 15C7.43751 15.0014 7.62706 14.9256 7.77126 14.7881C7.8427 14.7202 7.89986 14.6379 7.9392 14.5463C7.97854 14.4547 7.99923 14.3558 7.99998 14.2556C8.00073 14.1554 7.98153 14.0561 7.94356 13.9639C7.9056 13.8717 7.84967 13.7885 7.77926 13.7194L2.03827 8.00697C1.96852 7.93866 1.91297 7.85642 1.87501 7.76527C1.83705 7.67412 1.81748 7.57595 1.81748 7.47675C1.81748 7.37755 1.83705 7.27938 1.87501 7.18823C1.91297 7.09707 1.96852 7.01484 2.03827 6.94653L7.73344 1.27906C7.80318 1.21081 7.85872 1.12864 7.89667 1.03755C7.93462 0.94646 7.95419 0.848355 7.95419 0.749213C7.95419 0.65007 7.93462 0.551965 7.89667 0.460874C7.85872 0.369782 7.80318 0.28761 7.73344 0.219364Z" fill="#796743"/>
</svg>
