<svg width="8" height="15" viewBox="0 0 8 15" fill="none" xmlns="http://www.w3.org/2000/svg">
<path fill-rule="evenodd" clip-rule="evenodd" d="M0.266552 14.7806C0.561092 15.0731 1.03745 15.0731 1.33126 14.7806L7.55879 8.58295C7.69819 8.44634 7.80919 8.28191 7.88504 8.09967C7.96089 7.91743 8 7.72119 8 7.52288C8 7.32457 7.96089 7.12832 7.88504 6.94608C7.80919 6.76385 7.69819 6.59942 7.55879 6.46281L1.28617 0.219371C1.14381 0.0798384 0.955292 0.00141196 0.758893 1.90084e-05C0.562494 -0.00137394 0.372944 0.074371 0.228737 0.211871C0.1573 0.279773 0.100141 0.362075 0.0607989 0.453681C0.0214573 0.545286 0.00077098 0.644246 2.10187e-05 0.74443C-0.000728942 0.844615 0.0184734 0.943891 0.056439 1.03611C0.0944045 1.12833 0.150325 1.21154 0.220737 1.28057L5.96172 6.99303C6.03148 7.06134 6.08703 7.14358 6.12499 7.23473C6.16295 7.32589 6.18252 7.42405 6.18252 7.52325C6.18252 7.62246 6.16295 7.72062 6.12499 7.81178C6.08703 7.90293 6.03148 7.98516 5.96172 8.05348L0.266552 13.7209C0.196816 13.7892 0.141281 13.8714 0.103331 13.9624C0.0653804 14.0535 0.0458093 14.1516 0.0458093 14.2508C0.0458092 14.3499 0.0653803 14.448 0.10333 14.5391C0.141281 14.6302 0.196815 14.7124 0.266552 14.7806Z" fill="#796743"/>
</svg>
