<svg width="29" height="22" viewBox="0 0 29 22" fill="none" xmlns="http://www.w3.org/2000/svg">
<path d="M28.937 4.95989L25.5641 15.2144C25.312 15.9447 24.65 16.4315 23.862 16.4315H10.8435C10.087 16.4315 9.36196 15.9751 9.10978 15.3057L4.12935 2.4343H1.26087C0.567391 2.4343 0 1.88658 0 1.21715C0 0.547718 0.567391 0 1.26087 0H5.01196C5.54783 0 6.02065 0.334716 6.20978 0.821577L11.3478 13.9972H23.3261L26.0054 5.78147H11.1587C10.4652 5.78147 9.89783 5.23375 9.89783 4.56431C9.89783 3.89488 10.4652 3.34716 11.1587 3.34716H27.7391C28.1489 3.34716 28.5272 3.56017 28.7478 3.86445C29 4.16874 29.063 4.59474 28.937 4.95989ZM11.4739 18.0443C10.938 18.0443 10.4022 18.2573 10.0239 18.6224C9.64565 18.9876 9.425 19.5048 9.425 20.0221C9.425 20.5394 9.64565 21.0567 10.0239 21.4219C10.4022 21.787 10.938 22 11.4739 22C12.0098 22 12.5457 21.787 12.9239 21.4219C13.3022 21.0567 13.5228 20.5394 13.5228 20.0221C13.5228 19.5048 13.3022 18.9876 12.9239 18.6224C12.5457 18.2573 12.0098 18.0443 11.4739 18.0443ZM22.7902 18.0443C22.2544 18.0443 21.7185 18.2573 21.3402 18.6224C20.962 18.9876 20.7413 19.5048 20.7413 20.0221C20.7413 20.5394 20.962 21.0567 21.3402 21.4219C21.7185 21.787 22.2544 22 22.7902 22C23.3261 22 23.862 21.787 24.2402 21.4219C24.6185 21.0567 24.8391 20.5394 24.8391 20.0221C24.8391 19.5048 24.6185 18.9876 24.2402 18.6224C23.862 18.2573 23.3261 18.0443 22.7902 18.0443Z" fill="#EEE9DF"/>
</svg>
