<svg width="26" height="15" viewBox="0 0 26 15" fill="none" xmlns="http://www.w3.org/2000/svg">
<path d="M0.0253906 13.1426C0.0277428 12.7925 0.161023 12.4567 0.396484 12.2031L0.395508 12.2031L11.1309 0.81836C11.3633 0.568042 11.6432 0.36865 11.9531 0.232422C12.2631 0.0962352 12.5973 0.0254387 12.9346 0.0253908C13.2719 0.0253908 13.606 0.096215 13.916 0.232422C14.2261 0.368639 14.5058 0.567952 14.7383 0.81836L14.7393 0.81836L25.3955 12.1211C25.8889 12.6444 25.889 13.4939 25.3955 14.0186C25.2805 14.1426 25.1416 14.2411 24.9883 14.3086C24.835 14.376 24.6698 14.4102 24.5029 14.4102C24.3361 14.4102 24.1709 14.376 24.0176 14.3086C23.8642 14.2411 23.7253 14.1426 23.6104 14.0186L23.6104 14.0176L13.8662 3.68164C13.7464 3.55252 13.6023 3.44923 13.4424 3.37891C13.2824 3.30858 13.1097 3.27246 12.9355 3.27246C12.7614 3.27246 12.5887 3.30858 12.4287 3.37891C12.3089 3.43161 12.1982 3.50322 12.0996 3.58984L12.0049 3.68164L2.18262 14.1016C2.06642 14.2266 1.92658 14.3261 1.77148 14.3936C1.61624 14.461 1.44888 14.4955 1.28027 14.4941C1.11173 14.4928 0.94518 14.4556 0.791016 14.3857C0.636794 14.3158 0.498175 14.2139 0.383789 14.0869C0.151795 13.8301 0.0230992 13.4926 0.0253906 13.1426Z" fill="#796743" stroke="#796743" stroke-width="0.0515607"/>
</svg>
